# xmcd CD database file
#
# Track frame offsets:
#	182
#	15165
#	26935
#	38292
#	53992
#	67625
#	79575
#	93600
#	106292
#	124272
#
# Disc length: 1877 seconds
#
# Revision: 2
# Processed by: cddbd v1.4PL0 Copyright (c) Steve Scherf et al.
# Submitted via: CDex 1.40Release
#
DISCID=6e07530a
DTITLE=Perfect Stranger - You Have The Right To Remain Silent
DYEAR=1995
DGENRE=Country
TTITLE0=Remember The Ride
TTITLE1=It's Up to You
TTITLE2=One More Reposession
TTITLE3=You Have The Right To Remain Silent
TTITLE4=Ridin' The Rodeo
TTITLE5=I Ain't Never
TTITLE6=Who Are You
TTITLE7=Cut Me Off
TTITLE8=I Am A Stranger Here Myself
TTITLE9=Even The Jukebox Can't Forget
EXTD=YEAR: 1995 ID3G: 2
EXTT0=
EXTT1=
EXTT2=
EXTT3=
EXTT4=
EXTT5=
EXTT6=
EXTT7=
EXTT8=
EXTT9=
PLAYORDER=
